<?xml version="1.0" encoding="UTF-8" standalone="no"?>
<!-- Created with Inkscape (http://www.inkscape.org/) -->

<svg
   xmlns:dc="http://purl.org/dc/elements/1.1/"
   xmlns:cc="http://creativecommons.org/ns#"
   xmlns:rdf="http://www.w3.org/1999/02/22-rdf-syntax-ns#"
   xmlns:svg="http://www.w3.org/2000/svg"
   xmlns="http://www.w3.org/2000/svg"
   xmlns:sodipodi="http://sodipodi.sourceforge.net/DTD/sodipodi-0.dtd"
   xmlns:inkscape="http://www.inkscape.org/namespaces/inkscape"
   width="297mm"
   height="210mm"
   id="svg5216"
   version="1.1"
   inkscape:version="0.47 r22583"
   sodipodi:docname="New document 25">
  <defs
     id="defs5218">
    <inkscape:perspective
       sodipodi:type="inkscape:persp3d"
       inkscape:vp_x="0 : 372.04724 : 1"
       inkscape:vp_y="0 : 1000 : 0"
       inkscape:vp_z="1052.3622 : 372.04724 : 1"
       inkscape:persp3d-origin="526.18109 : 248.03149 : 1"
       id="perspective5225" />
    <inkscape:perspective
       id="perspective5235"
       inkscape:persp3d-origin="0.5 : 0.33333333 : 1"
       inkscape:vp_z="1 : 0.5 : 1"
       inkscape:vp_y="0 : 1000 : 0"
       inkscape:vp_x="0 : 0.5 : 1"
       sodipodi:type="inkscape:persp3d" />
  </defs>
  <sodipodi:namedview
     inkscape:document-units="mm"
     pagecolor="#ffffff"
     bordercolor="#666666"
     borderopacity="1.0"
     inkscape:pageopacity="0.0"
     inkscape:pageshadow="2"
     inkscape:zoom="1.2279853"
     inkscape:cx="546.94458"
     inkscape:cy="380"
     inkscape:current-layer="g5181"
     id="namedview5220"
     showgrid="false"
     inkscape:window-width="1349"
     inkscape:window-height="989"
     inkscape:window-x="323"
     inkscape:window-y="124"
     inkscape:window-maximized="0" />
  <metadata
     id="metadata5222">
    <rdf:RDF>
      <cc:Work
         rdf:about="">
        <dc:format>image/svg+xml</dc:format>
        <dc:type
           rdf:resource="http://purl.org/dc/dcmitype/StillImage" />
        <dc:title></dc:title>
      </cc:Work>
    </rdf:RDF>
  </metadata>
  <g
     inkscape:label="Layer 1"
     inkscape:groupmode="layer"
     id="layer1">
    <g
       transform="translate(-360.73284,115.68526)"
       id="g5181">
      <rect
         style="fill:#000535;stroke:#bfe0ec;stroke-width:1.77165353000000003;stroke-miterlimit:4;stroke-opacity:1;stroke-dasharray:none;fill-opacity:1"
         id="rect5791"
         width="1030.7299"
         height="747.42316"
         x="0"
         y="-1.0253402"
         transform="translate(360.73284,-115.68526)" />
      <g
         inkscape:export-ydpi="599.95923"
         inkscape:export-xdpi="599.95923"
         inkscape:export-filename="/tmp/earth.png"
         transform="matrix(0.9174077,-0.39794863,0.39794863,0.9174077,-31.966729,372.9981)"
         id="text2939"
         style="font-size:106.49672698999999909px;font-style:normal;font-variant:normal;font-weight:bold;font-stretch:normal;text-align:start;line-height:100%;writing-mode:lr-tb;text-anchor:start;fill:none;fill-opacity:1;stroke:#bfe0ec;font-family:Berlinsans;-inkscape-font-specification:Berlinsans Medium;stroke-opacity:1;stroke-width:1.77165353999999997;stroke-miterlimit:4;stroke-dasharray:none">
        <path
           id="path3961"
           style="font-family:FFDingbats SignsOne;-inkscape-font-specification:FFDingbats SignsOne Medium;stroke:#bfe0ec;stroke-opacity:1;fill:none;stroke-width:1.77165353999999997;stroke-miterlimit:4;stroke-dasharray:none"
           d="m 918.60768,263.45731 c 0,-19.70187 -16.29402,-35.8894 -35.99589,-35.8894 -19.80837,0 -35.9959,16.18753 -35.9959,35.8894 0,19.70188 16.18753,35.9959 35.9959,35.9959 19.70187,0 35.99589,-16.29402 35.99589,-35.9959 m -11.18215,-20.76686 -10.64968,2.02344 c -2.55592,-4.15337 -5.00535,-8.51975 -8.62623,-13.41859 7.66775,1.91694 13.95107,5.00535 19.27591,11.39515 M 876.86096,231.2953 c -3.51438,5.00534 -6.07031,9.15872 -8.20024,13.41859 -4.04687,-0.42599 -7.02879,-1.27796 -10.75617,-2.12994 5.32483,-6.2833 11.28866,-9.37171 18.95641,-11.28865 m 4.15338,14.80305 c -3.0884,0 -5.85733,-0.3195 -9.26522,-0.74548 2.66242,-4.57936 5.53784,-8.83924 9.26522,-13.84458 l 0,14.59006 m 12.46011,-0.95848 c -3.30139,0.74548 -6.17681,0.95848 -9.37171,0.95848 l 0,-14.37706 c 4.15337,4.68585 6.6028,8.94573 9.37171,13.41858 m 21.29935,16.71999 -12.46012,0 c -0.31949,-5.32483 -1.81044,-9.37172 -3.72738,-14.05757 3.83388,-0.95847 7.02879,-1.59745 11.07566,-2.44942 2.9819,5.21833 4.89885,10.22369 5.11184,16.50699 M 866.63728,247.6958 c -1.91694,4.79234 -3.4079,8.94573 -3.83388,14.16406 l -12.56662,0 c 0.42599,-6.2833 2.23644,-11.28866 5.32484,-16.50699 3.83388,0.85197 7.13528,1.49095 11.07566,2.34293 m 32.69449,14.16406 -15.22903,0 0,-12.14063 c 4.15337,-0.21299 7.34828,-0.63898 10.96917,-1.17146 1.81044,4.15337 3.62088,8.09376 4.25986,13.31209 m -18.31743,0 -15.22903,0 c 0.63897,-5.43133 2.44942,-9.15872 4.57935,-13.31209 3.3014,0.53248 6.49631,0.95847 10.64968,1.17146 l 0,12.14063 m 18.31743,3.08841 c -0.63898,5.21833 -2.44942,9.15872 -4.25986,13.20559 -3.51439,-0.31949 -6.8158,-1.06497 -10.96917,-1.06497 l 0,-12.14062 15.22903,0 m -18.31743,12.14062 c -4.15337,0 -7.24178,0.74548 -10.54318,1.06497 -2.23643,-4.04687 -4.04688,-7.98726 -4.68585,-13.20559 l 15.22903,0 0,12.14062 m 33.75946,-12.14062 c -0.42599,6.38979 -2.12994,11.60814 -5.21834,16.82648 l -11.07566,-2.76892 c 2.02344,-4.68585 3.4079,-8.73273 3.83388,-14.05756 l 12.46012,0 m -47.81703,14.05756 -11.28865,2.76892 c -3.08841,-5.32483 -5.00535,-10.43669 -5.32484,-16.82648 l 12.46012,0 c 0.42598,5.32483 1.91694,9.37171 4.15337,14.05756 m 14.05757,16.294 c -3.72738,-5.00534 -6.6028,-9.26522 -9.15872,-13.73807 3.1949,-0.63898 6.17681,-0.74548 9.15872,-0.85198 l 0,14.59005 m 12.35362,-13.73807 c -2.66242,4.57935 -5.64433,8.73273 -9.26522,13.84457 l 0,-14.69655 c 3.1949,0.1065 5.96382,0.213 9.26522,0.85198 m 13.63158,2.66241 c -5.00534,6.3898 -11.18217,9.26522 -18.74343,11.18216 3.4079,-4.79235 5.96382,-9.05223 8.51974,-13.31209 l 10.22369,2.12993 m -30.03208,11.18216 c -7.66776,-1.81044 -13.63158,-4.79236 -18.74342,-11.07566 3.51439,-1.06497 6.7093,-1.49095 10.43668,-2.23643 2.12993,4.25986 4.79235,8.62624 8.30674,13.31209" />
      </g>
      <g
         transform="translate(505.48536,4.5712302)"
         id="text2816-8-3"
         style="font-size:40px;font-style:normal;font-variant:normal;font-weight:bold;font-stretch:normal;text-align:start;line-height:100%;writing-mode:lr-tb;text-anchor:start;fill:#000000;fill-opacity:1;stroke:#bfe0ec;font-family:Berlinsans;-inkscape-font-specification:Berlinsans Medium;stroke-opacity:1">
        <path
           id="path3778-7"
           style="font-size:144px;line-height:100%;font-family:Berlinsans Demi;-inkscape-font-specification:Berlinsans Demi Medium;stroke:#bfe0ec;stroke-opacity:1;fill:none;stroke-width:3.54330708999999988;stroke-miterlimit:4;stroke-dasharray:none"
           d="m 263.3182,290.40334 c -0.432,-3.456 -1.296,-20.01601 -1.296,-25.92 -0.144,-6.768 0.576,-19.296 0.72,-21.6 0.144,-1.872 -0.576,-2.304 -1.728,-2.304 -1.152,0 -10.36801,0.576 -13.536,0.576 -3.024,0 -8.352,-0.288 -10.368,-0.576 -1.872,-0.144 -3.456,-0.288 -3.888,0.576 -0.288,0.72 0.144,5.472 0.432,8.208 0.144,2.016 1.152,10.368 1.584,16.416 -4.608,1.872 -8.92801,3.6 -15.984,3.6 -12.95999,0 -23.472,-7.48802 -23.472,-25.056 0,-14.68799 8.64001,-25.92 22.464,-25.92 9.21599,0 14.832,3.888 19.584,9.072 2.016,2.304 2.304,2.448 3.744,1.44 1.584,-1.152 5.328,-5.184 7.2,-7.632 2.736,-3.6 4.608,-6.336 5.472,-8.208 0.72,-1.584 0.72,-2.016 -0.72,-3.888 -3.312,-4.608 -14.25602,-16.704 -36.144,-16.704 -29.23197,0 -49.104,22.32003 -49.104,52.128 0,29.66397 21.02403,50.544 49.392,50.544 14.68798,0 25.632,-4.752 28.224,-5.76 1.584,0.72 13.392,3.456 14.832,3.6 2.16,0.288 2.88,-0.576 2.592,-2.592" />
        <path
           id="path3780-9"
           style="font-size:144px;line-height:100%;font-family:Berlinsans Demi;-inkscape-font-specification:Berlinsans Demi Medium;stroke:#bfe0ec;stroke-opacity:1;fill:none;stroke-width:3.54330708999999988;stroke-miterlimit:4;stroke-dasharray:none"
           d="m 337.1812,255.26734 c -0.72,-21.59998 -17.28002,-33.264 -32.4,-33.264 -21.02398,0 -35.136,15.26402 -35.136,37.152 0,19.72798 12.81602,36.288 37.584,36.288 13.82398,0 21.456,-4.03201 26.64,-9.216 0.864,-0.864 1.152,-1.584 1.008,-2.304 -0.576,-2.304 -3.168,-7.056 -3.6,-7.632 -0.576,-1.008 -2.592,-4.752 -4.032,-6.48 -0.432,-0.576 -0.72,-0.864 -1.584,-0.144 -3.024,2.592 -8.92801,6.336 -17.136,6.336 -8.06399,0 -14.112,-3.60001 -15.264,-8.928 3.31199,-0.144 33.552,-3.024 39.312,-3.744 2.16,-0.288 4.608,-3.16801 4.608,-8.064 m -24.624,-4.32 c 0,0.432 -0.288,1.008 -2.304,1.152 -5.04,0.576 -12.96,1.44 -15.12,1.584 -2.736,0.144 -3.168,-0.144 -3.024,-1.872 0.288,-5.328 3.024,-11.376 9.216,-11.808 7.19999,-0.432 10.8,5.616 11.232,10.944" />
        <path
           id="path3786-2"
           style="font-size:144px;line-height:100%;font-family:Berlinsans Demi;-inkscape-font-specification:Berlinsans Demi Medium;stroke:#bfe0ec;stroke-opacity:1;fill:none;stroke-width:3.54330708999999988;stroke-miterlimit:4;stroke-dasharray:none"
           d="m 594.57895,232.37134 c 0,-22.03198 -15.40802,-37.008 -37.296,-37.296 -3.312,0 -12.24001,-0.288 -21.168,-0.288 -11.51999,0 -22.176,0.576 -24.192,0.72 -1.872,0.144 -2.304,0.432 -2.016,2.592 0.72,5.75999 1.872,35.13601 1.872,46.368 0,10.07999 -0.288,45.36 -0.432,46.944 -0.144,1.728 0.432,2.16 2.016,2.016 1.296,-0.144 7.344,0.144 11.808,0.144 5.32799,0 10.8,0.144 12.816,0.288 2.304,0.144 2.736,0 2.592,-1.584 -0.288,-2.736 -1.296,-14.11201 -1.296,-19.152 0,-2.016 1.008,-2.592 3.024,-2.592 4.89599,0.144 12.816,0.72 16.992,0.576 21.59998,-0.144 35.28,-14.83203 35.28,-38.736 m -28.08,1.152 c 0,9.21599 -4.17601,15.408 -15.264,15.408 -11.08799,0 -12.672,-0.576 -12.672,-1.44 0,-2.16 -0.288,-10.368 -0.288,-12.816 0,-1.296 0.288,-15.12 0.432,-16.272 0.144,-0.864 10.368,-1.296 11.808,-1.296 12.09599,0 15.984,7.92001 15.984,16.416" />
        <g
           style="display:none;stroke:#bfe0ec;stroke-opacity:1"
           inkscape:label="BerlinSans - X"
           id="layer2-3"
           inkscape:groupmode="layer">
          <path
             id="path3784-9"
             style="font-size:144px;font-style:normal;font-variant:normal;font-weight:bold;font-stretch:normal;text-align:start;line-height:100%;writing-mode:lr-tb;text-anchor:start;fill:#000000;fill-opacity:1;stroke:#bfe0ec;font-family:Berlinsans Demi;-inkscape-font-specification:Berlinsans Demi Medium;stroke-opacity:1"
             d="m 499.3612,284.06734 c 0,-1.152 -0.288,-7.776 -0.288,-8.64 0,-0.72 0,-1.008 -0.72,-2.016 -1.728,-2.304 -14.11201,-18.57601 -20.736,-27.936 -0.72,-1.008 -0.72,-1.728 -0.144,-2.592 6.47999,-8.63999 18.864,-24.91201 20.592,-27.792 0.72,-1.152 0.72,-1.296 0.72,-2.016 0,-0.72 -0.288,-7.488 -0.288,-8.496 0,-1.152 0.288,-7.776 0.288,-8.64 0,-0.864 -1.44,-1.152 -2.448,-1.152 -0.72,0 -6.912,0.288 -8.352,0.288 -1.584,0 -6.912,-0.288 -8.352,-0.288 -1.44,0 -14.97601,20.16 -18.864,26.064 -1.152,1.584 -1.296,1.728 -2.448,0.144 -3.888,-6.048 -17.136,-26.208 -18.576,-26.208 -1.44,0 -6.624,0.288 -8.208,0.288 -1.44,0 -7.488,-0.288 -9.504,-0.432 -0.864,-0.144 -2.448,0.288 -2.448,1.296 0,0.864 0.432,7.776 0.432,8.784 0,1.008 -0.144,7.488 -0.144,8.352 0,0.72 0,1.008 0.72,2.016 1.44,1.728 16.272,20.88 20.592,27.216 0.864,1.152 0.72,2.88 -0.144,4.032 -3.168,4.60799 -18.72,25.2 -20.304,27.36 -0.72,1.008 -0.72,1.296 -0.72,2.016 0,0.72 -0.288,7.2 -0.288,8.208 0,1.152 0.288,7.344 0.288,8.208 0,0.864 1.44,1.296 2.16,1.296 0.864,0 7.92,0.288 9.216,0.288 1.296,0 6.912,0.144 8.352,-0.288 1.44,-0.432 14.976,-20.30401 18.72,-25.776 1.008,-1.584 1.008,-1.728 2.16,-0.144 3.59999,5.61599 16.848,25.92 18.432,25.92 1.44,0 7.056,0.288 8.496,0.288 1.296,0 8.064,-0.144 9.216,-0.288 1.44,-0.288 2.304,-0.576 2.448,-1.872 0.144,-0.864 0.144,-6.48 0.144,-7.488" />
        </g>
      </g>
      <g
         id="text3719-8-9"
         style="font-size:178.77095031999999719px;font-style:normal;font-variant:normal;font-weight:bold;font-stretch:normal;text-align:start;line-height:125%;writing-mode:lr-tb;text-anchor:start;fill:none;fill-opacity:1;stroke:#bfe0ec;font-family:Berlinsans;-inkscape-font-specification:Berlinsans Medium;stroke-opacity:1;stroke-width:3.54330708999999988;stroke-miterlimit:4;stroke-dasharray:none">
        <path
           id="path3976"
           style="line-height:100%;fill:none;fill-opacity:1;stroke:#bfe0ec;font-family:FFDingbats SignsOne;-inkscape-font-specification:FFDingbats SignsOne Medium;stroke-opacity:1;stroke-width:3.54330708999999988;stroke-miterlimit:4;stroke-dasharray:none"
           d="m 1005.5683,305.70276 c 0,-0.17877 0,-0.53631 -0.1788,-0.71508 -1.7877,-4.46927 -12.51394,-30.74863 -26.10052,-55.419 10.54748,-7.68714 21.81002,-14.48045 24.84912,-16.26815 0.3576,-0.35754 0.7151,-0.89386 0.7151,-1.2514 0,-0.17877 -0.1787,-0.35754 -0.1787,-0.53631 l -3.5755,-28.9609 c 0,-0.71508 -0.5363,-1.25139 -1.43013,-1.25139 -0.35754,0 -0.71508,0 -1.07262,0.35754 -5.18436,4.2905 -18.77096,15.91063 -31.10615,28.42458 -11.97764,-18.59216 -26.99442,-38.97207 -31.82123,-45.40782 -0.35754,-0.35754 -0.71508,-0.53631 -1.25139,-0.53631 -0.53632,0 -1.07263,0.35754 -1.2514,0.71508 l -11.79888,26.4581 c 0,0.17877 0,0.35754 0,0.53631 0,0.53632 0.17877,0.89386 0.35754,1.07263 3.21787,3.93296 17.69833,21.09499 28.60335,36.11173 -9.47485,12.51395 -20.55866,30.56984 -22.70391,33.96648 -0.17877,0.35754 -0.35754,0.71509 -0.35754,1.07263 l 2.86033,19.48603 c 0,0.89385 0.53632,1.43017 1.43017,1.43017 0.53631,0 1.07263,-0.17877 1.43017,-0.71509 4.46927,-6.97206 15.55308,-23.59778 28.42458,-39.15083 14.12289,22.70388 28.9609,52.73744 33.60894,62.7486 0.35754,0.35754 0.89385,0.71508 1.43017,0.71508 0.71508,0 1.25139,-0.35754 1.43016,-0.89385 l 7.50834,-21.45251 c 0.1788,-0.17878 0.1788,-0.35755 0.1788,-0.53632" />
      </g>
    </g>
  </g>
</svg>
