<?xml version="1.0" encoding="UTF-8" standalone="no"?>
<!-- Created with Inkscape (http://www.inkscape.org/) -->

<svg
   xmlns:dc="http://purl.org/dc/elements/1.1/"
   xmlns:cc="http://creativecommons.org/ns#"
   xmlns:rdf="http://www.w3.org/1999/02/22-rdf-syntax-ns#"
   xmlns:svg="http://www.w3.org/2000/svg"
   xmlns="http://www.w3.org/2000/svg"
   xmlns:sodipodi="http://sodipodi.sourceforge.net/DTD/sodipodi-0.dtd"
   xmlns:inkscape="http://www.inkscape.org/namespaces/inkscape"
   width="297mm"
   height="210mm"
   id="svg3008"
   version="1.1"
   inkscape:version="0.48.2 r9819"
   sodipodi:docname="SenX.svg">
  <defs
     id="defs3010">
    <inkscape:perspective
       sodipodi:type="inkscape:persp3d"
       inkscape:vp_x="0 : 0.5 : 1"
       inkscape:vp_y="0 : 1000 : 0"
       inkscape:vp_z="1 : 0.5 : 1"
       inkscape:persp3d-origin="0.5 : 0.33333333 : 1"
       id="perspective4773" />
    <inkscape:perspective
       sodipodi:type="inkscape:persp3d"
       inkscape:vp_x="0 : 0.5 : 1"
       inkscape:vp_y="0 : 1000 : 0"
       inkscape:vp_z="1 : 0.5 : 1"
       inkscape:persp3d-origin="0.5 : 0.33333333 : 1"
       id="perspective4743" />
    <inkscape:perspective
       sodipodi:type="inkscape:persp3d"
       inkscape:vp_x="0 : 0.5 : 1"
       inkscape:vp_y="0 : 1000 : 0"
       inkscape:vp_z="1 : 0.5 : 1"
       inkscape:persp3d-origin="0.5 : 0.33333333 : 1"
       id="perspective4147" />
    <inkscape:perspective
       id="perspective4171"
       inkscape:persp3d-origin="526.18109 : 248.03149 : 1"
       inkscape:vp_z="1052.3622 : 372.04724 : 1"
       inkscape:vp_y="0 : 1000 : 0"
       inkscape:vp_x="0 : 372.04724 : 1"
       sodipodi:type="inkscape:persp3d" />
  </defs>
  <sodipodi:namedview
     inkscape:document-units="mm"
     pagecolor="#ffffff"
     bordercolor="#666666"
     borderopacity="1.0"
     inkscape:pageopacity="0.0"
     inkscape:pageshadow="2"
     inkscape:zoom="0.30699632"
     inkscape:cx="1360.5716"
     inkscape:cy="575.44208"
     inkscape:current-layer="layer1"
     id="namedview3012"
     showgrid="false"
     inkscape:window-width="1566"
     inkscape:window-height="1114"
     inkscape:window-x="358"
     inkscape:window-y="44"
     inkscape:window-maximized="0" />
  <metadata
     id="metadata3014">
    <rdf:RDF>
      <cc:Work
         rdf:about="">
        <dc:format>image/svg+xml</dc:format>
        <dc:type
           rdf:resource="http://purl.org/dc/dcmitype/StillImage" />
        <dc:title></dc:title>
      </cc:Work>
    </rdf:RDF>
  </metadata>
  <g
     inkscape:label="Layer 1"
     inkscape:groupmode="layer"
     id="layer1">
    <g
       id="g4140"
       transform="translate(-198.69945,100.97841)">
      <text
         sodipodi:linespacing="125%"
         id="text3017"
         y="281.36127"
         x="582.43738"
         style="font-size:120px;font-style:normal;font-variant:normal;font-weight:normal;font-stretch:normal;line-height:125%;letter-spacing:0px;word-spacing:0px;fill:#505050;fill-opacity:1;stroke:none;font-family:Helvetica;-inkscape-font-specification:Helvetica"
         xml:space="preserve"><tspan
           style="font-size:144px;font-style:normal;font-variant:normal;font-weight:bold;font-stretch:normal;fill:#505050;fill-opacity:1;font-family:Berlin Sans FB Demi;-inkscape-font-specification:Berlin Sans FB Demi Bold"
           y="281.36127"
           x="582.43738"
           id="tspan3019"
           sodipodi:role="line">Sen</tspan></text>
      <g
         transform="translate(-124.50728,-18.17238)"
         style="font-size:178.77095032px;font-style:normal;font-variant:normal;font-weight:bold;font-stretch:normal;text-align:start;line-height:125%;writing-mode:lr-tb;text-anchor:start;fill:#3a6dff;fill-opacity:1;stroke:none;font-family:Berlinsans;-inkscape-font-specification:Berlinsans Medium"
         id="text3719-8-9">
        <path
           inkscape:connector-curvature="0"
           d="m 1005.5683,305.70276 c 0,-0.17877 0,-0.53631 -0.1788,-0.71508 -1.7877,-4.46927 -12.51394,-30.74863 -26.10052,-55.419 10.54748,-7.68714 21.81002,-14.48045 24.84912,-16.26815 0.3576,-0.35754 0.7151,-0.89386 0.7151,-1.2514 0,-0.17877 -0.1787,-0.35754 -0.1787,-0.53631 l -3.5755,-28.9609 c 0,-0.71508 -0.5363,-1.25139 -1.43013,-1.25139 -0.35754,0 -0.71508,0 -1.07262,0.35754 -5.18436,4.2905 -18.77096,15.91063 -31.10615,28.42458 -11.97764,-18.59216 -26.99442,-38.97207 -31.82123,-45.40782 -0.35754,-0.35754 -0.71508,-0.53631 -1.25139,-0.53631 -0.53632,0 -1.07263,0.35754 -1.2514,0.71508 l -11.79888,26.4581 c 0,0.17877 0,0.35754 0,0.53631 0,0.53632 0.17877,0.89386 0.35754,1.07263 3.21787,3.93296 17.69833,21.09499 28.60335,36.11173 -9.47485,12.51395 -20.55866,30.56984 -22.70391,33.96648 -0.17877,0.35754 -0.35754,0.71509 -0.35754,1.07263 l 2.86033,19.48603 c 0,0.89385 0.53632,1.43017 1.43017,1.43017 0.53631,0 1.07263,-0.17877 1.43017,-0.71509 4.46927,-6.97206 15.55308,-23.59778 28.42458,-39.15083 14.12289,22.70388 28.9609,52.73744 33.60894,62.7486 0.35754,0.35754 0.89385,0.71508 1.43017,0.71508 0.71508,0 1.25139,-0.35754 1.43016,-0.89385 l 7.50834,-21.45251 c 0.1788,-0.17878 0.1788,-0.35755 0.1788,-0.53632"
           style="line-height:100%;fill:#3a6dff;fill-opacity:1;stroke:none;font-family:FFDingbats SignsOne;-inkscape-font-specification:FFDingbats SignsOne Medium"
           id="path3976" />
      </g>
    </g>
  </g>
</svg>
